<?xml version="1.0" encoding="utf-8"?><svg width="auto" height="6120" style="overflow:visible " version="1.1" xmlns="http://www.w3.org/2000/svg"><rect x="20" y="20" width="200" height="40" style="fill:white;stroke:black;stroke-width:1" /><text x="30" y="30" font-size="10" style="fill:blue">xs:schema</text><text x="30" y="40" font-size="8" style="fill:black">xmlns:xs: http://www.w3.org/2001/XMLSchema</text><text x="30" y="50" font-size="8" style="fill:black">targetNamespace: http://www.uniovi.es</text><text x="30" y="60" font-size="8" style="fill:black">xmlns: http://www.uniovi.es</text><text x="30" y="70" font-size="8" style="fill:black">elementFormDefault: qualified</text><rect x="240" y="20" width="200" height="40" style="fill:white;stroke:black;stroke-width:1" /><text x="250" y="30" font-size="10" style="fill:blue">xs:element</text><path d="M220 40 C240 40 220 40 240 40" style="fill:transparent;stroke:black" /><text x="250" y="40" font-size="8" style="fill:black">name: circuito</text><rect x="460" y="20" width="200" height="40" style="fill:white;stroke:black;stroke-width:1" /><text x="470" y="30" font-size="10" style="fill:blue">xs:complexType</text><path d="M440 40 C460 40 440 40 460 40" style="fill:transparent;stroke:black" /><rect x="680" y="20" width="200" height="40" style="fill:white;stroke:black;stroke-width:1" /><text x="690" y="30" font-size="10" style="fill:blue">xs:sequence</text><path d="M660 40 C680 40 660 40 680 40" style="fill:transparent;stroke:black" /><rect x="900" y="20" width="200" height="40" style="fill:white;stroke:black;stroke-width:1" /><text x="910" y="30" font-size="10" style="fill:blue">xs:element</text><path d="M880 40 C900 40 880 40 900 40" style="fill:transparent;stroke:black" /><text x="910" y="40" font-size="8" style="fill:black">ref: nombre</text><rect x="900" y="70" width="200" height="40" style="fill:white;stroke:black;stroke-width:1" /><text x="910" y="80" font-size="10" style="fill:blue">xs:element</text><path d="M880 40 C900 40 880 90 900 90" style="fill:transparent;stroke:black" /><text x="910" y="90" font-size="8" style="fill:black">ref: longitud</text><rect x="900" y="120" width="200" height="40" style="fill:white;stroke:black;stroke-width:1" /><text x="910" y="130" font-size="10" style="fill:blue">xs:element</text><path d="M880 40 C900 40 880 140 900 140" style="fill:transparent;stroke:black" /><text x="910" y="140" font-size="8" style="fill:black">ref: anchura</text><rect x="900" y="170" width="200" height="40" style="fill:white;stroke:black;stroke-width:1" /><text x="910" y="180" font-size="10" style="fill:blue">xs:element</text><path d="M880 40 C900 40 880 190 900 190" style="fill:transparent;stroke:black" /><text x="910" y="190" font-size="8" style="fill:black">ref: fecha</text><rect x="900" y="220" width="200" height="40" style="fill:white;stroke:black;stroke-width:1" /><text x="910" y="230" font-size="10" style="fill:blue">xs:element</text><path d="M880 40 C900 40 880 240 900 240" style="fill:transparent;stroke:black" /><text x="910" y="240" font-size="8" style="fill:black">ref: hora</text><rect x="900" y="270" width="200" height="40" style="fill:white;stroke:black;stroke-width:1" /><text x="910" y="280" font-size="10" style="fill:blue">xs:element</text><path d="M880 40 C900 40 880 290 900 290" style="fill:transparent;stroke:black" /><text x="910" y="290" font-size="8" style="fill:black">ref: vueltas</text><rect x="900" y="320" width="200" height="40" style="fill:white;stroke:black;stroke-width:1" /><text x="910" y="330" font-size="10" style="fill:blue">xs:element</text><path d="M880 40 C900 40 880 340 900 340" style="fill:transparent;stroke:black" /><text x="910" y="340" font-size="8" style="fill:black">ref: localidad</text><rect x="900" y="370" width="200" height="40" style="fill:white;stroke:black;stroke-width:1" /><text x="910" y="380" font-size="10" style="fill:blue">xs:element</text><path d="M880 40 C900 40 880 390 900 390" style="fill:transparent;stroke:black" /><text x="910" y="390" font-size="8" style="fill:black">ref: pais</text><rect x="900" y="420" width="200" height="40" style="fill:white;stroke:black;stroke-width:1" /><text x="910" y="430" font-size="10" style="fill:blue">xs:element</text><path d="M880 40 C900 40 880 440 900 440" style="fill:transparent;stroke:black" /><text x="910" y="440" font-size="8" style="fill:black">ref: patrocinador</text><rect x="900" y="470" width="200" height="40" style="fill:white;stroke:black;stroke-width:1" /><text x="910" y="480" font-size="10" style="fill:blue">xs:element</text><path d="M880 40 C900 40 880 490 900 490" style="fill:transparent;stroke:black" /><text x="910" y="490" font-size="8" style="fill:black">ref: referencias</text><rect x="900" y="520" width="200" height="40" style="fill:white;stroke:black;stroke-width:1" /><text x="910" y="530" font-size="10" style="fill:blue">xs:element</text><path d="M880 40 C900 40 880 540 900 540" style="fill:transparent;stroke:black" /><text x="910" y="540" font-size="8" style="fill:black">ref: fotos</text><rect x="900" y="570" width="200" height="40" style="fill:white;stroke:black;stroke-width:1" /><text x="910" y="580" font-size="10" style="fill:blue">xs:element</text><path d="M880 40 C900 40 880 590 900 590" style="fill:transparent;stroke:black" /><text x="910" y="590" font-size="8" style="fill:black">ref: videos</text><rect x="900" y="620" width="200" height="40" style="fill:white;stroke:black;stroke-width:1" /><text x="910" y="630" font-size="10" style="fill:blue">xs:element</text><path d="M880 40 C900 40 880 640 900 640" style="fill:transparent;stroke:black" /><text x="910" y="640" font-size="8" style="fill:black">ref: origen</text><rect x="900" y="670" width="200" height="40" style="fill:white;stroke:black;stroke-width:1" /><text x="910" y="680" font-size="10" style="fill:blue">xs:element</text><path d="M880 40 C900 40 880 690 900 690" style="fill:transparent;stroke:black" /><text x="910" y="690" font-size="8" style="fill:black">ref: sectores</text><rect x="900" y="720" width="200" height="40" style="fill:white;stroke:black;stroke-width:1" /><text x="910" y="730" font-size="10" style="fill:blue">xs:element</text><path d="M880 40 C900 40 880 740 900 740" style="fill:transparent;stroke:black" /><text x="910" y="740" font-size="8" style="fill:black">ref: ganador</text><rect x="900" y="770" width="200" height="40" style="fill:white;stroke:black;stroke-width:1" /><text x="910" y="780" font-size="10" style="fill:blue">xs:element</text><path d="M880 40 C900 40 880 790 900 790" style="fill:transparent;stroke:black" /><text x="910" y="790" font-size="8" style="fill:black">ref: podio</text><rect x="240" y="970" width="200" height="40" style="fill:white;stroke:black;stroke-width:1" /><text x="250" y="980" font-size="10" style="fill:blue">xs:element</text><path d="M220 40 C240 40 220 990 240 990" style="fill:transparent;stroke:black" /><text x="250" y="990" font-size="8" style="fill:black">name: nombre</text><text x="250" y="1000" font-size="8" style="fill:black">type: xs:string</text><rect x="240" y="1020" width="200" height="40" style="fill:white;stroke:black;stroke-width:1" /><text x="250" y="1030" font-size="10" style="fill:blue">xs:simpleType</text><path d="M220 40 C240 40 220 1040 240 1040" style="fill:transparent;stroke:black" /><text x="250" y="1040" font-size="8" style="fill:black">name: longitudTipo</text><rect x="460" y="1020" width="200" height="40" style="fill:white;stroke:black;stroke-width:1" /><text x="470" y="1030" font-size="10" style="fill:blue">xs:restriction</text><path d="M440 1040 C460 1040 440 1040 460 1040" style="fill:transparent;stroke:black" /><text x="470" y="1040" font-size="8" style="fill:black">base: xs:float</text><rect x="680" y="1020" width="200" height="40" style="fill:white;stroke:black;stroke-width:1" /><text x="690" y="1030" font-size="10" style="fill:blue">xs:minInclusive</text><path d="M660 1040 C680 1040 660 1040 680 1040" style="fill:transparent;stroke:black" /><text x="690" y="1040" font-size="8" style="fill:black">value: 0.0</text><rect x="680" y="1070" width="200" height="40" style="fill:white;stroke:black;stroke-width:1" /><text x="690" y="1080" font-size="10" style="fill:blue">xs:maxInclusive</text><path d="M660 1040 C680 1040 660 1090 680 1090" style="fill:transparent;stroke:black" /><text x="690" y="1090" font-size="8" style="fill:black">value: 7000.0</text><rect x="240" y="1220" width="200" height="40" style="fill:white;stroke:black;stroke-width:1" /><text x="250" y="1230" font-size="10" style="fill:blue">xs:element</text><path d="M220 40 C240 40 220 1240 240 1240" style="fill:transparent;stroke:black" /><text x="250" y="1240" font-size="8" style="fill:black">name: longitud</text><rect x="460" y="1220" width="200" height="40" style="fill:white;stroke:black;stroke-width:1" /><text x="470" y="1230" font-size="10" style="fill:blue">xs:complexType</text><path d="M440 1240 C460 1240 440 1240 460 1240" style="fill:transparent;stroke:black" /><rect x="680" y="1220" width="200" height="40" style="fill:white;stroke:black;stroke-width:1" /><text x="690" y="1230" font-size="10" style="fill:blue">xs:simpleContent</text><path d="M660 1240 C680 1240 660 1240 680 1240" style="fill:transparent;stroke:black" /><rect x="900" y="1220" width="200" height="40" style="fill:white;stroke:black;stroke-width:1" /><text x="910" y="1230" font-size="10" style="fill:blue">xs:extension</text><path d="M880 1240 C900 1240 880 1240 900 1240" style="fill:transparent;stroke:black" /><text x="910" y="1240" font-size="8" style="fill:black">base: longitudTipo</text><rect x="1120" y="1220" width="200" height="40" style="fill:white;stroke:black;stroke-width:1" /><text x="1130" y="1230" font-size="10" style="fill:blue">xs:attribute</text><path d="M1100 1240 C1120 1240 1100 1240 1120 1240" style="fill:transparent;stroke:black" /><text x="1130" y="1240" font-size="8" style="fill:black">name: unidades</text><text x="1130" y="1250" font-size="8" style="fill:black">type: xs:string</text><text x="1130" y="1260" font-size="8" style="fill:black">use: required</text><rect x="240" y="1470" width="200" height="40" style="fill:white;stroke:black;stroke-width:1" /><text x="250" y="1480" font-size="10" style="fill:blue">xs:simpleType</text><path d="M220 40 C240 40 220 1490 240 1490" style="fill:transparent;stroke:black" /><text x="250" y="1490" font-size="8" style="fill:black">name: anchuraTipo</text><rect x="460" y="1470" width="200" height="40" style="fill:white;stroke:black;stroke-width:1" /><text x="470" y="1480" font-size="10" style="fill:blue">xs:restriction</text><path d="M440 1490 C460 1490 440 1490 460 1490" style="fill:transparent;stroke:black" /><text x="470" y="1490" font-size="8" style="fill:black">base: xs:float</text><rect x="680" y="1470" width="200" height="40" style="fill:white;stroke:black;stroke-width:1" /><text x="690" y="1480" font-size="10" style="fill:blue">xs:minInclusive</text><path d="M660 1490 C680 1490 660 1490 680 1490" style="fill:transparent;stroke:black" /><text x="690" y="1490" font-size="8" style="fill:black">value: 0.0</text><rect x="680" y="1520" width="200" height="40" style="fill:white;stroke:black;stroke-width:1" /><text x="690" y="1530" font-size="10" style="fill:blue">xs:maxInclusive</text><path d="M660 1490 C680 1490 660 1540 680 1540" style="fill:transparent;stroke:black" /><text x="690" y="1540" font-size="8" style="fill:black">value: 20.0</text><rect x="240" y="1670" width="200" height="40" style="fill:white;stroke:black;stroke-width:1" /><text x="250" y="1680" font-size="10" style="fill:blue">xs:element</text><path d="M220 40 C240 40 220 1690 240 1690" style="fill:transparent;stroke:black" /><text x="250" y="1690" font-size="8" style="fill:black">name: anchura</text><rect x="460" y="1670" width="200" height="40" style="fill:white;stroke:black;stroke-width:1" /><text x="470" y="1680" font-size="10" style="fill:blue">xs:complexType</text><path d="M440 1690 C460 1690 440 1690 460 1690" style="fill:transparent;stroke:black" /><rect x="680" y="1670" width="200" height="40" style="fill:white;stroke:black;stroke-width:1" /><text x="690" y="1680" font-size="10" style="fill:blue">xs:simpleContent</text><path d="M660 1690 C680 1690 660 1690 680 1690" style="fill:transparent;stroke:black" /><rect x="900" y="1670" width="200" height="40" style="fill:white;stroke:black;stroke-width:1" /><text x="910" y="1680" font-size="10" style="fill:blue">xs:extension</text><path d="M880 1690 C900 1690 880 1690 900 1690" style="fill:transparent;stroke:black" /><text x="910" y="1690" font-size="8" style="fill:black">base: anchuraTipo</text><rect x="1120" y="1670" width="200" height="40" style="fill:white;stroke:black;stroke-width:1" /><text x="1130" y="1680" font-size="10" style="fill:blue">xs:attribute</text><path d="M1100 1690 C1120 1690 1100 1690 1120 1690" style="fill:transparent;stroke:black" /><text x="1130" y="1690" font-size="8" style="fill:black">name: unidades</text><text x="1130" y="1700" font-size="8" style="fill:black">type: xs:string</text><text x="1130" y="1710" font-size="8" style="fill:black">use: required</text><rect x="240" y="1920" width="200" height="40" style="fill:white;stroke:black;stroke-width:1" /><text x="250" y="1930" font-size="10" style="fill:blue">xs:element</text><path d="M220 40 C240 40 220 1940 240 1940" style="fill:transparent;stroke:black" /><text x="250" y="1940" font-size="8" style="fill:black">name: fecha</text><rect x="460" y="1920" width="200" height="40" style="fill:white;stroke:black;stroke-width:1" /><text x="470" y="1930" font-size="10" style="fill:blue">xs:simpleType</text><path d="M440 1940 C460 1940 440 1940 460 1940" style="fill:transparent;stroke:black" /><rect x="680" y="1920" width="200" height="40" style="fill:white;stroke:black;stroke-width:1" /><text x="690" y="1930" font-size="10" style="fill:blue">xs:restriction</text><path d="M660 1940 C680 1940 660 1940 680 1940" style="fill:transparent;stroke:black" /><text x="690" y="1940" font-size="8" style="fill:black">base: xs:date</text><rect x="900" y="1920" width="200" height="40" style="fill:white;stroke:black;stroke-width:1" /><text x="910" y="1930" font-size="10" style="fill:blue">xs:minInclusive</text><path d="M880 1940 C900 1940 880 1940 900 1940" style="fill:transparent;stroke:black" /><text x="910" y="1940" font-size="8" style="fill:black">value: 2025-01-01</text><rect x="900" y="1970" width="200" height="40" style="fill:white;stroke:black;stroke-width:1" /><text x="910" y="1980" font-size="10" style="fill:blue">xs:maxInclusive</text><path d="M880 1940 C900 1940 880 1990 900 1990" style="fill:transparent;stroke:black" /><text x="910" y="1990" font-size="8" style="fill:black">value: 2025-12-31</text><rect x="240" y="2170" width="200" height="40" style="fill:white;stroke:black;stroke-width:1" /><text x="250" y="2180" font-size="10" style="fill:blue">xs:element</text><path d="M220 40 C240 40 220 2190 240 2190" style="fill:transparent;stroke:black" /><text x="250" y="2190" font-size="8" style="fill:black">name: hora</text><text x="250" y="2200" font-size="8" style="fill:black">type: xs:time</text><rect x="240" y="2220" width="200" height="40" style="fill:white;stroke:black;stroke-width:1" /><text x="250" y="2230" font-size="10" style="fill:blue">xs:element</text><path d="M220 40 C240 40 220 2240 240 2240" style="fill:transparent;stroke:black" /><text x="250" y="2240" font-size="8" style="fill:black">name: vueltas</text><text x="250" y="2250" font-size="8" style="fill:black">type: xs:integer</text><rect x="240" y="2270" width="200" height="40" style="fill:white;stroke:black;stroke-width:1" /><text x="250" y="2280" font-size="10" style="fill:blue">xs:element</text><path d="M220 40 C240 40 220 2290 240 2290" style="fill:transparent;stroke:black" /><text x="250" y="2290" font-size="8" style="fill:black">name: localidad</text><text x="250" y="2300" font-size="8" style="fill:black">type: xs:string</text><rect x="240" y="2320" width="200" height="40" style="fill:white;stroke:black;stroke-width:1" /><text x="250" y="2330" font-size="10" style="fill:blue">xs:element</text><path d="M220 40 C240 40 220 2340 240 2340" style="fill:transparent;stroke:black" /><text x="250" y="2340" font-size="8" style="fill:black">name: pais</text><text x="250" y="2350" font-size="8" style="fill:black">type: xs:string</text><rect x="240" y="2370" width="200" height="40" style="fill:white;stroke:black;stroke-width:1" /><text x="250" y="2380" font-size="10" style="fill:blue">xs:element</text><path d="M220 40 C240 40 220 2390 240 2390" style="fill:transparent;stroke:black" /><text x="250" y="2390" font-size="8" style="fill:black">name: patrocinador</text><text x="250" y="2400" font-size="8" style="fill:black">type: xs:string</text><rect x="240" y="2420" width="200" height="40" style="fill:white;stroke:black;stroke-width:1" /><text x="250" y="2430" font-size="10" style="fill:blue">xs:element</text><path d="M220 40 C240 40 220 2440 240 2440" style="fill:transparent;stroke:black" /><text x="250" y="2440" font-size="8" style="fill:black">name: referencias</text><rect x="460" y="2420" width="200" height="40" style="fill:white;stroke:black;stroke-width:1" /><text x="470" y="2430" font-size="10" style="fill:blue">xs:complexType</text><path d="M440 2440 C460 2440 440 2440 460 2440" style="fill:transparent;stroke:black" /><rect x="680" y="2420" width="200" height="40" style="fill:white;stroke:black;stroke-width:1" /><text x="690" y="2430" font-size="10" style="fill:blue">xs:sequence</text><path d="M660 2440 C680 2440 660 2440 680 2440" style="fill:transparent;stroke:black" /><rect x="900" y="2420" width="200" height="40" style="fill:white;stroke:black;stroke-width:1" /><text x="910" y="2430" font-size="10" style="fill:blue">xs:element</text><path d="M880 2440 C900 2440 880 2440 900 2440" style="fill:transparent;stroke:black" /><text x="910" y="2440" font-size="8" style="fill:black">minOccurs: 3</text><text x="910" y="2450" font-size="8" style="fill:black">maxOccurs: unbounded</text><text x="910" y="2460" font-size="8" style="fill:black">ref: referencia</text><rect x="240" y="2620" width="200" height="40" style="fill:white;stroke:black;stroke-width:1" /><text x="250" y="2630" font-size="10" style="fill:blue">xs:element</text><path d="M220 40 C240 40 220 2640 240 2640" style="fill:transparent;stroke:black" /><text x="250" y="2640" font-size="8" style="fill:black">name: referencia</text><text x="250" y="2650" font-size="8" style="fill:black">type: xs:string</text><rect x="240" y="2670" width="200" height="40" style="fill:white;stroke:black;stroke-width:1" /><text x="250" y="2680" font-size="10" style="fill:blue">xs:element</text><path d="M220 40 C240 40 220 2690 240 2690" style="fill:transparent;stroke:black" /><text x="250" y="2690" font-size="8" style="fill:black">name: fotos</text><rect x="460" y="2670" width="200" height="40" style="fill:white;stroke:black;stroke-width:1" /><text x="470" y="2680" font-size="10" style="fill:blue">xs:complexType</text><path d="M440 2690 C460 2690 440 2690 460 2690" style="fill:transparent;stroke:black" /><rect x="680" y="2670" width="200" height="40" style="fill:white;stroke:black;stroke-width:1" /><text x="690" y="2680" font-size="10" style="fill:blue">xs:sequence</text><path d="M660 2690 C680 2690 660 2690 680 2690" style="fill:transparent;stroke:black" /><rect x="900" y="2670" width="200" height="40" style="fill:white;stroke:black;stroke-width:1" /><text x="910" y="2680" font-size="10" style="fill:blue">xs:element</text><path d="M880 2690 C900 2690 880 2690 900 2690" style="fill:transparent;stroke:black" /><text x="910" y="2690" font-size="8" style="fill:black">minOccurs: 1</text><text x="910" y="2700" font-size="8" style="fill:black">maxOccurs: 5</text><text x="910" y="2710" font-size="8" style="fill:black">ref: foto</text><rect x="240" y="2870" width="200" height="40" style="fill:white;stroke:black;stroke-width:1" /><text x="250" y="2880" font-size="10" style="fill:blue">xs:element</text><path d="M220 40 C240 40 220 2890 240 2890" style="fill:transparent;stroke:black" /><text x="250" y="2890" font-size="8" style="fill:black">name: foto</text><text x="250" y="2900" font-size="8" style="fill:black">type: xs:string</text><rect x="240" y="2920" width="200" height="40" style="fill:white;stroke:black;stroke-width:1" /><text x="250" y="2930" font-size="10" style="fill:blue">xs:element</text><path d="M220 40 C240 40 220 2940 240 2940" style="fill:transparent;stroke:black" /><text x="250" y="2940" font-size="8" style="fill:black">name: videos</text><rect x="460" y="2920" width="200" height="40" style="fill:white;stroke:black;stroke-width:1" /><text x="470" y="2930" font-size="10" style="fill:blue">xs:complexType</text><path d="M440 2940 C460 2940 440 2940 460 2940" style="fill:transparent;stroke:black" /><rect x="680" y="2920" width="200" height="40" style="fill:white;stroke:black;stroke-width:1" /><text x="690" y="2930" font-size="10" style="fill:blue">xs:sequence</text><path d="M660 2940 C680 2940 660 2940 680 2940" style="fill:transparent;stroke:black" /><rect x="900" y="2920" width="200" height="40" style="fill:white;stroke:black;stroke-width:1" /><text x="910" y="2930" font-size="10" style="fill:blue">xs:element</text><path d="M880 2940 C900 2940 880 2940 900 2940" style="fill:transparent;stroke:black" /><text x="910" y="2940" font-size="8" style="fill:black">minOccurs: 1</text><text x="910" y="2950" font-size="8" style="fill:black">maxOccurs: 3</text><text x="910" y="2960" font-size="8" style="fill:black">ref: video</text><rect x="240" y="3120" width="200" height="40" style="fill:white;stroke:black;stroke-width:1" /><text x="250" y="3130" font-size="10" style="fill:blue">xs:element</text><path d="M220 40 C240 40 220 3140 240 3140" style="fill:transparent;stroke:black" /><text x="250" y="3140" font-size="8" style="fill:black">name: video</text><text x="250" y="3150" font-size="8" style="fill:black">type: xs:string</text><rect x="240" y="3170" width="200" height="40" style="fill:white;stroke:black;stroke-width:1" /><text x="250" y="3180" font-size="10" style="fill:blue">xs:element</text><path d="M220 40 C240 40 220 3190 240 3190" style="fill:transparent;stroke:black" /><text x="250" y="3190" font-size="8" style="fill:black">name: origen</text><rect x="460" y="3170" width="200" height="40" style="fill:white;stroke:black;stroke-width:1" /><text x="470" y="3180" font-size="10" style="fill:blue">xs:complexType</text><path d="M440 3190 C460 3190 440 3190 460 3190" style="fill:transparent;stroke:black" /><rect x="680" y="3170" width="200" height="40" style="fill:white;stroke:black;stroke-width:1" /><text x="690" y="3180" font-size="10" style="fill:blue">xs:sequence</text><path d="M660 3190 C680 3190 660 3190 680 3190" style="fill:transparent;stroke:black" /><rect x="900" y="3170" width="200" height="40" style="fill:white;stroke:black;stroke-width:1" /><text x="910" y="3180" font-size="10" style="fill:blue">xs:element</text><path d="M880 3190 C900 3190 880 3190 900 3190" style="fill:transparent;stroke:black" /><text x="910" y="3190" font-size="8" style="fill:black">ref: longitud</text><rect x="900" y="3220" width="200" height="40" style="fill:white;stroke:black;stroke-width:1" /><text x="910" y="3230" font-size="10" style="fill:blue">xs:element</text><path d="M880 3190 C900 3190 880 3240 900 3240" style="fill:transparent;stroke:black" /><text x="910" y="3240" font-size="8" style="fill:black">ref: latitud</text><rect x="900" y="3270" width="200" height="40" style="fill:white;stroke:black;stroke-width:1" /><text x="910" y="3280" font-size="10" style="fill:blue">xs:element</text><path d="M880 3190 C900 3190 880 3290 900 3290" style="fill:transparent;stroke:black" /><text x="910" y="3290" font-size="8" style="fill:black">ref: altitud</text><rect x="240" y="3470" width="200" height="40" style="fill:white;stroke:black;stroke-width:1" /><text x="250" y="3480" font-size="10" style="fill:blue">xs:element</text><path d="M220 40 C240 40 220 3490 240 3490" style="fill:transparent;stroke:black" /><text x="250" y="3490" font-size="8" style="fill:black">name: sectores</text><rect x="460" y="3470" width="200" height="40" style="fill:white;stroke:black;stroke-width:1" /><text x="470" y="3480" font-size="10" style="fill:blue">xs:complexType</text><path d="M440 3490 C460 3490 440 3490 460 3490" style="fill:transparent;stroke:black" /><rect x="680" y="3470" width="200" height="40" style="fill:white;stroke:black;stroke-width:1" /><text x="690" y="3480" font-size="10" style="fill:blue">xs:sequence</text><path d="M660 3490 C680 3490 660 3490 680 3490" style="fill:transparent;stroke:black" /><rect x="900" y="3470" width="200" height="40" style="fill:white;stroke:black;stroke-width:1" /><text x="910" y="3480" font-size="10" style="fill:blue">xs:element</text><path d="M880 3490 C900 3490 880 3490 900 3490" style="fill:transparent;stroke:black" /><text x="910" y="3490" font-size="8" style="fill:black">minOccurs: 1</text><text x="910" y="3500" font-size="8" style="fill:black">maxOccurs: unbounded</text><text x="910" y="3510" font-size="8" style="fill:black">ref: sector</text><rect x="240" y="3670" width="200" height="40" style="fill:white;stroke:black;stroke-width:1" /><text x="250" y="3680" font-size="10" style="fill:blue">xs:element</text><path d="M220 40 C240 40 220 3690 240 3690" style="fill:transparent;stroke:black" /><text x="250" y="3690" font-size="8" style="fill:black">name: sector</text><rect x="460" y="3670" width="200" height="40" style="fill:white;stroke:black;stroke-width:1" /><text x="470" y="3680" font-size="10" style="fill:blue">xs:complexType</text><path d="M440 3690 C460 3690 440 3690 460 3690" style="fill:transparent;stroke:black" /><rect x="680" y="3670" width="200" height="40" style="fill:white;stroke:black;stroke-width:1" /><text x="690" y="3680" font-size="10" style="fill:blue">xs:sequence</text><path d="M660 3690 C680 3690 660 3690 680 3690" style="fill:transparent;stroke:black" /><rect x="900" y="3670" width="200" height="40" style="fill:white;stroke:black;stroke-width:1" /><text x="910" y="3680" font-size="10" style="fill:blue">xs:element</text><path d="M880 3690 C900 3690 880 3690 900 3690" style="fill:transparent;stroke:black" /><text x="910" y="3690" font-size="8" style="fill:black">ref: distancia</text><rect x="900" y="3720" width="200" height="40" style="fill:white;stroke:black;stroke-width:1" /><text x="910" y="3730" font-size="10" style="fill:blue">xs:element</text><path d="M880 3690 C900 3690 880 3740 900 3740" style="fill:transparent;stroke:black" /><text x="910" y="3740" font-size="8" style="fill:black">ref: final</text><rect x="900" y="3770" width="200" height="40" style="fill:white;stroke:black;stroke-width:1" /><text x="910" y="3780" font-size="10" style="fill:blue">xs:element</text><path d="M880 3690 C900 3690 880 3790 900 3790" style="fill:transparent;stroke:black" /><text x="910" y="3790" font-size="8" style="fill:black">ref: numero</text><rect x="240" y="3970" width="200" height="40" style="fill:white;stroke:black;stroke-width:1" /><text x="250" y="3980" font-size="10" style="fill:blue">xs:element</text><path d="M220 40 C240 40 220 3990 240 3990" style="fill:transparent;stroke:black" /><text x="250" y="3990" font-size="8" style="fill:black">name: distancia</text><rect x="460" y="3970" width="200" height="40" style="fill:white;stroke:black;stroke-width:1" /><text x="470" y="3980" font-size="10" style="fill:blue">xs:complexType</text><path d="M440 3990 C460 3990 440 3990 460 3990" style="fill:transparent;stroke:black" /><rect x="680" y="3970" width="200" height="40" style="fill:white;stroke:black;stroke-width:1" /><text x="690" y="3980" font-size="10" style="fill:blue">xs:simpleContent</text><path d="M660 3990 C680 3990 660 3990 680 3990" style="fill:transparent;stroke:black" /><rect x="900" y="3970" width="200" height="40" style="fill:white;stroke:black;stroke-width:1" /><text x="910" y="3980" font-size="10" style="fill:blue">xs:extension</text><path d="M880 3990 C900 3990 880 3990 900 3990" style="fill:transparent;stroke:black" /><text x="910" y="3990" font-size="8" style="fill:black">base: xs:string</text><rect x="1120" y="3970" width="200" height="40" style="fill:white;stroke:black;stroke-width:1" /><text x="1130" y="3980" font-size="10" style="fill:blue">xs:attribute</text><path d="M1100 3990 C1120 3990 1100 3990 1120 3990" style="fill:transparent;stroke:black" /><text x="1130" y="3990" font-size="8" style="fill:black">name: unidades</text><text x="1130" y="4000" font-size="8" style="fill:black">type: xs:string</text><text x="1130" y="4010" font-size="8" style="fill:black">use: required</text><rect x="240" y="4220" width="200" height="40" style="fill:white;stroke:black;stroke-width:1" /><text x="250" y="4230" font-size="10" style="fill:blue">xs:element</text><path d="M220 40 C240 40 220 4240 240 4240" style="fill:transparent;stroke:black" /><text x="250" y="4240" font-size="8" style="fill:black">name: final</text><rect x="460" y="4220" width="200" height="40" style="fill:white;stroke:black;stroke-width:1" /><text x="470" y="4230" font-size="10" style="fill:blue">xs:complexType</text><path d="M440 4240 C460 4240 440 4240 460 4240" style="fill:transparent;stroke:black" /><rect x="680" y="4220" width="200" height="40" style="fill:white;stroke:black;stroke-width:1" /><text x="690" y="4230" font-size="10" style="fill:blue">xs:sequence</text><path d="M660 4240 C680 4240 660 4240 680 4240" style="fill:transparent;stroke:black" /><rect x="900" y="4220" width="200" height="40" style="fill:white;stroke:black;stroke-width:1" /><text x="910" y="4230" font-size="10" style="fill:blue">xs:element</text><path d="M880 4240 C900 4240 880 4240 900 4240" style="fill:transparent;stroke:black" /><text x="910" y="4240" font-size="8" style="fill:black">ref: longitud</text><rect x="900" y="4270" width="200" height="40" style="fill:white;stroke:black;stroke-width:1" /><text x="910" y="4280" font-size="10" style="fill:blue">xs:element</text><path d="M880 4240 C900 4240 880 4290 900 4290" style="fill:transparent;stroke:black" /><text x="910" y="4290" font-size="8" style="fill:black">ref: latitud</text><rect x="900" y="4320" width="200" height="40" style="fill:white;stroke:black;stroke-width:1" /><text x="910" y="4330" font-size="10" style="fill:blue">xs:element</text><path d="M880 4240 C900 4240 880 4340 900 4340" style="fill:transparent;stroke:black" /><text x="910" y="4340" font-size="8" style="fill:black">ref: altitud</text><rect x="240" y="4520" width="200" height="40" style="fill:white;stroke:black;stroke-width:1" /><text x="250" y="4530" font-size="10" style="fill:blue">xs:element</text><path d="M220 40 C240 40 220 4540 240 4540" style="fill:transparent;stroke:black" /><text x="250" y="4540" font-size="8" style="fill:black">name: latitud</text><rect x="460" y="4520" width="200" height="40" style="fill:white;stroke:black;stroke-width:1" /><text x="470" y="4530" font-size="10" style="fill:blue">xs:complexType</text><path d="M440 4540 C460 4540 440 4540 460 4540" style="fill:transparent;stroke:black" /><rect x="680" y="4520" width="200" height="40" style="fill:white;stroke:black;stroke-width:1" /><text x="690" y="4530" font-size="10" style="fill:blue">xs:simpleContent</text><path d="M660 4540 C680 4540 660 4540 680 4540" style="fill:transparent;stroke:black" /><rect x="900" y="4520" width="200" height="40" style="fill:white;stroke:black;stroke-width:1" /><text x="910" y="4530" font-size="10" style="fill:blue">xs:extension</text><path d="M880 4540 C900 4540 880 4540 900 4540" style="fill:transparent;stroke:black" /><text x="910" y="4540" font-size="8" style="fill:black">base: xs:float</text><rect x="1120" y="4520" width="200" height="40" style="fill:white;stroke:black;stroke-width:1" /><text x="1130" y="4530" font-size="10" style="fill:blue">xs:attribute</text><path d="M1100 4540 C1120 4540 1100 4540 1120 4540" style="fill:transparent;stroke:black" /><text x="1130" y="4540" font-size="8" style="fill:black">name: unidades</text><text x="1130" y="4550" font-size="8" style="fill:black">type: xs:string</text><text x="1130" y="4560" font-size="8" style="fill:black">use: required</text><rect x="240" y="4770" width="200" height="40" style="fill:white;stroke:black;stroke-width:1" /><text x="250" y="4780" font-size="10" style="fill:blue">xs:element</text><path d="M220 40 C240 40 220 4790 240 4790" style="fill:transparent;stroke:black" /><text x="250" y="4790" font-size="8" style="fill:black">name: altitud</text><rect x="460" y="4770" width="200" height="40" style="fill:white;stroke:black;stroke-width:1" /><text x="470" y="4780" font-size="10" style="fill:blue">xs:complexType</text><path d="M440 4790 C460 4790 440 4790 460 4790" style="fill:transparent;stroke:black" /><rect x="680" y="4770" width="200" height="40" style="fill:white;stroke:black;stroke-width:1" /><text x="690" y="4780" font-size="10" style="fill:blue">xs:simpleContent</text><path d="M660 4790 C680 4790 660 4790 680 4790" style="fill:transparent;stroke:black" /><rect x="900" y="4770" width="200" height="40" style="fill:white;stroke:black;stroke-width:1" /><text x="910" y="4780" font-size="10" style="fill:blue">xs:extension</text><path d="M880 4790 C900 4790 880 4790 900 4790" style="fill:transparent;stroke:black" /><text x="910" y="4790" font-size="8" style="fill:black">base: xs:float</text><rect x="1120" y="4770" width="200" height="40" style="fill:white;stroke:black;stroke-width:1" /><text x="1130" y="4780" font-size="10" style="fill:blue">xs:attribute</text><path d="M1100 4790 C1120 4790 1100 4790 1120 4790" style="fill:transparent;stroke:black" /><text x="1130" y="4790" font-size="8" style="fill:black">name: unidades</text><text x="1130" y="4800" font-size="8" style="fill:black">type: xs:string</text><text x="1130" y="4810" font-size="8" style="fill:black">use: required</text><rect x="240" y="5020" width="200" height="40" style="fill:white;stroke:black;stroke-width:1" /><text x="250" y="5030" font-size="10" style="fill:blue">xs:element</text><path d="M220 40 C240 40 220 5040 240 5040" style="fill:transparent;stroke:black" /><text x="250" y="5040" font-size="8" style="fill:black">name: numero</text><text x="250" y="5050" font-size="8" style="fill:black">type: xs:integer</text><rect x="240" y="5070" width="200" height="40" style="fill:white;stroke:black;stroke-width:1" /><text x="250" y="5080" font-size="10" style="fill:blue">xs:element</text><path d="M220 40 C240 40 220 5090 240 5090" style="fill:transparent;stroke:black" /><text x="250" y="5090" font-size="8" style="fill:black">name: ganador</text><rect x="460" y="5070" width="200" height="40" style="fill:white;stroke:black;stroke-width:1" /><text x="470" y="5080" font-size="10" style="fill:blue">xs:complexType</text><path d="M440 5090 C460 5090 440 5090 460 5090" style="fill:transparent;stroke:black" /><rect x="680" y="5070" width="200" height="40" style="fill:white;stroke:black;stroke-width:1" /><text x="690" y="5080" font-size="10" style="fill:blue">xs:sequence</text><path d="M660 5090 C680 5090 660 5090 680 5090" style="fill:transparent;stroke:black" /><rect x="900" y="5070" width="200" height="40" style="fill:white;stroke:black;stroke-width:1" /><text x="910" y="5080" font-size="10" style="fill:blue">xs:element</text><path d="M880 5090 C900 5090 880 5090 900 5090" style="fill:transparent;stroke:black" /><text x="910" y="5090" font-size="8" style="fill:black">ref: piloto</text><rect x="900" y="5120" width="200" height="40" style="fill:white;stroke:black;stroke-width:1" /><text x="910" y="5130" font-size="10" style="fill:blue">xs:element</text><path d="M880 5090 C900 5090 880 5140 900 5140" style="fill:transparent;stroke:black" /><text x="910" y="5140" font-size="8" style="fill:black">ref: tiempo</text><rect x="240" y="5320" width="200" height="40" style="fill:white;stroke:black;stroke-width:1" /><text x="250" y="5330" font-size="10" style="fill:blue">xs:element</text><path d="M220 40 C240 40 220 5340 240 5340" style="fill:transparent;stroke:black" /><text x="250" y="5340" font-size="8" style="fill:black">name: piloto</text><text x="250" y="5350" font-size="8" style="fill:black">type: xs:string</text><rect x="240" y="5370" width="200" height="40" style="fill:white;stroke:black;stroke-width:1" /><text x="250" y="5380" font-size="10" style="fill:blue">xs:element</text><path d="M220 40 C240 40 220 5390 240 5390" style="fill:transparent;stroke:black" /><text x="250" y="5390" font-size="8" style="fill:black">name: tiempo</text><rect x="460" y="5370" width="200" height="40" style="fill:white;stroke:black;stroke-width:1" /><text x="470" y="5380" font-size="10" style="fill:blue">xs:complexType</text><path d="M440 5390 C460 5390 440 5390 460 5390" style="fill:transparent;stroke:black" /><rect x="680" y="5370" width="200" height="40" style="fill:white;stroke:black;stroke-width:1" /><text x="690" y="5380" font-size="10" style="fill:blue">xs:simpleContent</text><path d="M660 5390 C680 5390 660 5390 680 5390" style="fill:transparent;stroke:black" /><rect x="900" y="5370" width="200" height="40" style="fill:white;stroke:black;stroke-width:1" /><text x="910" y="5380" font-size="10" style="fill:blue">xs:extension</text><path d="M880 5390 C900 5390 880 5390 900 5390" style="fill:transparent;stroke:black" /><text x="910" y="5390" font-size="8" style="fill:black">base: xs:float</text><rect x="1120" y="5370" width="200" height="40" style="fill:white;stroke:black;stroke-width:1" /><text x="1130" y="5380" font-size="10" style="fill:blue">xs:attribute</text><path d="M1100 5390 C1120 5390 1100 5390 1120 5390" style="fill:transparent;stroke:black" /><text x="1130" y="5390" font-size="8" style="fill:black">name: unidades</text><text x="1130" y="5400" font-size="8" style="fill:black">type: xs:string</text><text x="1130" y="5410" font-size="8" style="fill:black">use: required</text><rect x="240" y="5620" width="200" height="40" style="fill:white;stroke:black;stroke-width:1" /><text x="250" y="5630" font-size="10" style="fill:blue">xs:element</text><path d="M220 40 C240 40 220 5640 240 5640" style="fill:transparent;stroke:black" /><text x="250" y="5640" font-size="8" style="fill:black">name: podio</text><rect x="460" y="5620" width="200" height="40" style="fill:white;stroke:black;stroke-width:1" /><text x="470" y="5630" font-size="10" style="fill:blue">xs:complexType</text><path d="M440 5640 C460 5640 440 5640 460 5640" style="fill:transparent;stroke:black" /><rect x="680" y="5620" width="200" height="40" style="fill:white;stroke:black;stroke-width:1" /><text x="690" y="5630" font-size="10" style="fill:blue">xs:sequence</text><path d="M660 5640 C680 5640 660 5640 680 5640" style="fill:transparent;stroke:black" /><rect x="900" y="5620" width="200" height="40" style="fill:white;stroke:black;stroke-width:1" /><text x="910" y="5630" font-size="10" style="fill:blue">xs:element</text><path d="M880 5640 C900 5640 880 5640 900 5640" style="fill:transparent;stroke:black" /><text x="910" y="5640" font-size="8" style="fill:black">minOccurs: 1</text><text x="910" y="5650" font-size="8" style="fill:black">maxOccurs: unbounded</text><text x="910" y="5660" font-size="8" style="fill:black">ref: clasificado</text><rect x="240" y="5820" width="200" height="40" style="fill:white;stroke:black;stroke-width:1" /><text x="250" y="5830" font-size="10" style="fill:blue">xs:element</text><path d="M220 40 C240 40 220 5840 240 5840" style="fill:transparent;stroke:black" /><text x="250" y="5840" font-size="8" style="fill:black">name: clasificado</text><rect x="460" y="5820" width="200" height="40" style="fill:white;stroke:black;stroke-width:1" /><text x="470" y="5830" font-size="10" style="fill:blue">xs:complexType</text><path d="M440 5840 C460 5840 440 5840 460 5840" style="fill:transparent;stroke:black" /><rect x="680" y="5820" width="200" height="40" style="fill:white;stroke:black;stroke-width:1" /><text x="690" y="5830" font-size="10" style="fill:blue">xs:simpleContent</text><path d="M660 5840 C680 5840 660 5840 680 5840" style="fill:transparent;stroke:black" /><rect x="900" y="5820" width="200" height="40" style="fill:white;stroke:black;stroke-width:1" /><text x="910" y="5830" font-size="10" style="fill:blue">xs:extension</text><path d="M880 5840 C900 5840 880 5840 900 5840" style="fill:transparent;stroke:black" /><text x="910" y="5840" font-size="8" style="fill:black">base: xs:string</text><rect x="1120" y="5820" width="200" height="40" style="fill:white;stroke:black;stroke-width:1" /><text x="1130" y="5830" font-size="10" style="fill:blue">xs:attribute</text><path d="M1100 5840 C1120 5840 1100 5840 1120 5840" style="fill:transparent;stroke:black" /><text x="1130" y="5840" font-size="8" style="fill:black">name: posicion</text><text x="1130" y="5850" font-size="8" style="fill:black">type: xs:integer</text><text x="1130" y="5860" font-size="8" style="fill:black">use: required</text></svg>